<?xml version="1.0" encoding="UTF-8"?>
<svg id="Layer_2" data-name="Layer 2" xmlns="http://www.w3.org/2000/svg" viewBox="0 0 24.24 24.24">
  <defs>
    <style>
      .cls-1 {
        fill: none;
      }

      .cls-2 {
        fill: #cb3b25;
      }
    </style>
  </defs>
  <g id="Layer_1-2" data-name="Layer 1">
    <g>
      <g>
        <polygon class="cls-2" points="13.22 21.44 12.54 20.51 10.89 21.58 10.74 22.05 11.38 23.29 13.32 22.12 13.75 23.16 15.91 21.91 14.88 20.4 13.22 21.44"/>
        <polygon class="cls-2" points="4.46 14.54 5.75 13.82 4.46 11.68 3.02 12.69 4.04 14.38 4.46 14.54"/>
        <path class="cls-2" d="M13.85,19.23c.93.18,1.7.94,1.7.94,0,0,.07-.08.18-.19h0c.09-.1.19-.2.32-.33-.11.15-.22.25-.28.31.22-.15,1.15-.79,1.65-1.75.02-.03.03-.05.03-.05h0c.16-.33.27-.71.29-1.1.02-.44-.08-.89-.27-1.32.36-.46.93-1.34,1.04-2.47.16-1.67-.91-2.68-2.44-4.67-1.45-1.88-1.6-2.89-.98-3.93-.38.2-.73.69-.99,1.3-1.08.65-2.75,1-2.99,2.77-.35,2.54,2.22,3.41,3.14,3.41.8,0,.93.44.99,1.19-.42-.27-.88-.5-1.36-.69-2.21-.86-4.78-1.95-5.3-4.3-.53-2.35-.63-3.19.12-5.44-2.8,4.38-2.28,6.45-1.61,7.68.29.54.8,1.19,1.49,1.83-1.19,1.22-2.62,3.24-1.36,4.8.38.47.86.82,1.4,1.08-1.25,1.2-3.28,2.09-6.41,2.26,2.17-.05,5.3-.5,7.29-1.89,1.75.55,3.71.46,4.33.57ZM13.52,9.28c-.23-.43-.11-1.15.2-1.96-.1.65-.09,1.3.11,1.79.11.28.27.57.45.88-.31-.18-.6-.42-.76-.71ZM15.7,12.02c.33.45.61.85.8,1.19.51.93,1,1.55.86,2.32-.41-.8-1.13-1.54-2.04-2.13l.37-1.38ZM11.96,14.41c.12.05.25.09.37.12,2.08.61,3.71,1.82,4.21,2.9-1.3-.8-3.03-1.18-3.97-1.18-.41,0-.77.05-1.14.08.3-.64.47-1.3.53-1.92ZM9.03,12.78c.11.1.24.19.36.28l.16.29s.05-.04.11-.09c.2.14.41.28.63.4.09.85,0,1.76-.33,2.63-.31-.06-.63-.14-1.01-.3-.68-.26-.63-1.51.07-3.21Z"/>
        <polygon class="cls-2" points="20.35 16.08 20.83 16.08 22.02 15.36 20.96 13.66 21.93 13.03 21.23 11.97 20.6 10.89 19.16 11.85 20.09 13.49 19.16 14.27 20.35 16.08"/>
        <polygon class="cls-2" points="13.18 2.77 13.75 3.85 15.95 2.4 15.16 1.26 14.85 .95 13.27 1.95 12.58 1.07 10.83 2.1 10.71 2.5 11.48 3.85 13.18 2.77"/>
      </g>
      <rect class="cls-1" width="24.24" height="24.24"/>
    </g>
  </g>
</svg>