<?xml version="1.0" encoding="UTF-8"?>
<svg id="Layer_2" data-name="Layer 2" xmlns="http://www.w3.org/2000/svg" viewBox="0 0 159.74 22.35">
  <defs>
    <style>
      .cls-1 {
        fill: rgba(0, 39, 25, .6);
      }

      .cls-2 {
        fill: #001e13;
      }
    </style>
  </defs>
  <g id="Layer_1-2" data-name="Layer 1">
    <g>
      <path class="cls-1" d="M87.41,9.43c0,3.17,6.88.71,6.88,5.31,0,2.16-1.75,3.37-4.14,3.37s-4.06-1.11-4.55-3.37h1.58c.36,1.34,1.37,2.06,2.99,2.06s2.57-.74,2.57-1.86c0-3.43-6.88-.87-6.88-5.41,0-1.62,1.35-3.04,3.83-3.04,2.16,0,3.89,1.04,4.31,3.43h-1.6c-.35-1.48-1.3-2.13-2.74-2.13s-2.24.64-2.24,1.63ZM96.43,15.39v-5.08h-1.22v-1.16h1.22v-2.01h1.45v2.01h1.93v1.16h-1.93v5.08c0,1.06.31,1.55,1.6,1.55h.3v1.04c-.17.08-.53.13-.94.13-1.63,0-2.41-.87-2.41-2.72ZM102.7,12.01h-1.45c.28-1.93,1.55-3.07,3.7-3.07,2.34,0,3.48,1.37,3.48,3.42v3.45c0,1.01.08,1.63.31,2.11h-1.53c-.17-.35-.22-.86-.23-1.39-.74,1.11-1.93,1.58-2.99,1.58-1.82,0-3.04-.84-3.04-2.51,0-1.2.66-2.08,1.95-2.51,1.19-.4,2.39-.49,4.08-.51v-.2c0-1.42-.66-2.19-2.16-2.19-1.25,0-1.93.69-2.11,1.82ZM102.43,15.57c0,.81.68,1.29,1.7,1.29,1.62,0,2.84-1.27,2.84-2.77v-.41c-3.73.03-4.54.83-4.54,1.9ZM110.97,17.91v-8.76h1.45v1.35c.59-1.07,1.54-1.57,2.59-1.57.35,0,.66.08.82.21v1.3c-.25-.08-.56-.12-.91-.12-1.75,0-2.51,1.09-2.51,2.67v4.9h-1.45ZM117.49,15.39v-5.08h-1.22v-1.16h1.22v-2.01h1.45v2.01h1.93v1.16h-1.93v5.08c0,1.06.31,1.55,1.6,1.55h.3v1.04c-.17.08-.53.13-.94.13-1.63,0-2.41-.87-2.41-2.72ZM129.99,15.06c-.48,2.05-1.95,3.05-3.94,3.05-2.54,0-4.07-1.72-4.07-4.57s1.53-4.6,3.99-4.6,3.96,1.7,3.96,4.49v.36h-6.47c.08,1.96,1.01,3.07,2.59,3.07,1.24,0,2.11-.59,2.43-1.8h1.52ZM125.96,10.19c-1.4,0-2.24.87-2.46,2.51h4.9c-.2-1.62-1.07-2.51-2.44-2.51ZM132.02,17.91v-8.76h1.45v1.35c.59-1.07,1.53-1.57,2.59-1.57.35,0,.66.08.83.21v1.3c-.25-.08-.56-.12-.91-.12-1.75,0-2.51,1.09-2.51,2.67v4.9h-1.45ZM141.94,17.91V6.69h1.52v5.41l5.13-5.41h1.91l-5.28,5.51,5.41,5.71h-2.05l-5.13-5.38v5.38h-1.52ZM152.24,7.98v-1.95h1.45v1.95h-1.45ZM152.24,17.91v-8.76h1.45v8.76h-1.45ZM156.36,15.39v-5.08h-1.22v-1.16h1.22v-2.01h1.45v2.01h1.93v1.16h-1.93v5.08c0,1.06.31,1.55,1.6,1.55h.3v1.04c-.16.08-.53.13-.94.13-1.63,0-2.41-.87-2.41-2.72Z"/>
      <g>
        <polygon class="cls-2" points="11 20.49 10.32 19.56 8.66 20.63 8.51 21.1 9.15 22.35 11.09 21.17 11.52 22.21 13.68 20.96 12.65 19.45 11 20.49"/>
        <polygon class="cls-2" points="2.23 13.59 3.52 12.87 2.23 10.74 .79 11.74 1.82 13.43 2.23 13.59"/>
        <path class="cls-2" d="M11.62,18.28c.93.18,1.7.94,1.7.94,0,0,.07-.08.18-.19h0c.09-.1.19-.2.32-.33-.11.15-.22.25-.28.31.22-.15,1.15-.79,1.65-1.75.02-.03.03-.05.03-.05h0c.16-.33.27-.71.29-1.1.02-.44-.08-.89-.27-1.32.36-.46.93-1.34,1.04-2.47.16-1.67-.91-2.68-2.44-4.67-1.45-1.88-1.6-2.89-.98-3.93-.38.2-.73.69-.99,1.3-1.08.65-2.75,1-2.99,2.77-.35,2.54,2.22,3.41,3.14,3.41.8,0,.93.44.99,1.19-.42-.27-.88-.5-1.36-.69-2.21-.86-4.78-1.95-5.3-4.3-.53-2.35-.63-3.19.12-5.44-2.8,4.38-2.28,6.45-1.61,7.68.29.54.8,1.19,1.49,1.83-1.19,1.22-2.62,3.24-1.36,4.8.38.47.86.82,1.4,1.08-1.25,1.2-3.28,2.09-6.41,2.26,2.17-.05,5.3-.5,7.29-1.89,1.75.55,3.71.46,4.33.57ZM11.3,8.33c-.23-.43-.11-1.15.2-1.96-.1.65-.09,1.3.11,1.79.11.28.27.57.45.88-.31-.18-.6-.42-.76-.71ZM13.48,11.07c.33.45.61.85.8,1.19.51.93,1,1.55.86,2.32-.41-.8-1.13-1.54-2.04-2.13l.37-1.38ZM9.74,13.46c.12.05.25.09.37.12,2.08.61,3.71,1.82,4.21,2.9-1.3-.8-3.03-1.18-3.97-1.18-.41,0-.77.05-1.14.08.3-.64.47-1.3.53-1.92ZM6.8,11.83c.11.1.24.19.36.28l.16.29s.05-.04.11-.09c.2.14.41.28.63.4.09.85,0,1.76-.33,2.63-.31-.06-.63-.14-1.01-.3-.68-.26-.63-1.51.07-3.21Z"/>
        <polygon class="cls-2" points="18.12 15.13 18.6 15.13 19.79 14.42 18.73 12.71 19.7 12.08 19 11.02 18.37 9.95 16.93 10.9 17.87 12.54 16.93 13.32 18.12 15.13"/>
        <polygon class="cls-2" points="10.95 1.82 11.52 2.9 13.73 1.45 12.94 .31 12.63 0 11.05 1.01 10.35 .12 8.6 1.15 8.48 1.56 9.25 2.9 10.95 1.82"/>
      </g>
      <g>
        <path class="cls-2" d="M40.87,17.65c-.52.11-1.08.16-1.7.16-3.88,0-5.93-2.13-5.93-5.98s2.05-5.98,5.93-5.98,5.93,2.13,5.93,5.98c0,2.23-.69,3.88-2.02,4.88l1.65,2.28h-2.88l-.99-1.34ZM38.78,15.05l-1.18-1.71h2.7l.71.99c.5-.55.61-1.39.61-2.49,0-2.05-.58-3.23-2.46-3.23s-2.46,1.18-2.46,3.23.76,3.22,2.02,3.22h.05Z"/>
        <path class="cls-2" d="M45.96,15.18c0-1.45.79-2.41,2.99-2.65l2.84-.32v-.32c0-.6-.29-.89-1.05-.89s-1.03.29-1.16.97l-3.25-.32c.34-1.91,1.34-3.01,4.53-3.01,2.83,0,4.25,1.07,4.25,3.38v5.56h-2.91l-.27-1.18h-.11c-.44.86-1.34,1.41-2.63,1.41-2.1,0-3.22-.95-3.22-2.62ZM51.8,14.5v-.49l-1.45.19c-.69.1-.95.26-.95.69,0,.47.32.71,1,.71.92,0,1.41-.47,1.41-1.12Z"/>
        <path class="cls-2" d="M60.96,8.87v.05h1.99v2.5h-1.99v6.14h-3.39v-6.14h-1.34v-2.5h1.34v-.6c0-2.17,1.02-3.12,3.51-3.12.94,0,1.78.13,2.18.24l-.32,2.46c-.18-.03-.55-.08-.95-.08-.82,0-1.02.42-1.02,1.05Z"/>
        <path class="cls-2" d="M64.07,6.24c0-1.07.71-1.65,1.91-1.65s1.88.58,1.88,1.65-.71,1.65-1.88,1.65-1.91-.58-1.91-1.65ZM64.23,8.92h3.39v8.65h-3.39v-8.65Z"/>
        <path class="cls-2" d="M68.89,15.18c0-1.45.79-2.41,2.99-2.65l2.84-.32v-.32c0-.6-.29-.89-1.05-.89s-1.03.29-1.16.97l-3.25-.32c.34-1.91,1.34-3.01,4.53-3.01,2.83,0,4.25,1.07,4.25,3.38v5.56h-2.91l-.27-1.18h-.11c-.44.86-1.34,1.41-2.63,1.41-2.1,0-3.22-.95-3.22-2.62ZM74.73,14.5v-.49l-1.45.19c-.69.1-.95.26-.95.69,0,.47.32.71,1,.71.92,0,1.41-.47,1.41-1.12Z"/>
      </g>
    </g>
  </g>
</svg>